<?xml version="1.0" standalone="no"?>
<!DOCTYPE svg PUBLIC "-//W3C//DTD SVG 20010904//EN"
 "http://www.w3.org/TR/2001/REC-SVG-20010904/DTD/svg10.dtd">
<svg version="1.0" xmlns="http://www.w3.org/2000/svg"
 width="128.000000pt" height="128.000000pt" viewBox="0 0 128.000000 128.000000"
 preserveAspectRatio="xMidYMid meet">

<g transform="translate(0.000000,128.000000) scale(0.100000,-0.100000)"
fill="#fff" stroke="none">
<path d="M652 1148 c-8 -8 -12 -58 -12 -159 l0 -146 -72 -7 c-184 -18 -306
-65 -387 -150 -90 -96 -128 -210 -138 -416 -5 -107 -4 -127 10 -138 28 -23 50
-9 88 58 92 162 198 224 427 246 l72 7 0 -150 c0 -152 5 -173 40 -173 23 0
560 498 560 520 0 22 -537 520 -560 520 -9 0 -21 -5 -28 -12z m286 -318 c110
-102 200 -187 200 -190 0 -6 -398 -374 -410 -378 -4 -2 -8 50 -8 116 0 95 -3
122 -15 132 -12 10 -42 11 -120 6 -186 -12 -314 -57 -406 -143 l-49 -46 0 35
c0 45 26 143 52 195 59 119 199 186 413 199 55 4 106 11 113 17 8 6 12 45 12
129 0 66 4 118 9 116 4 -1 98 -86 209 -188z"/>
</g>
</svg>
