<?xml version="1.0" standalone="no"?>
<!DOCTYPE svg PUBLIC "-//W3C//DTD SVG 20010904//EN"
 "http://www.w3.org/TR/2001/REC-SVG-20010904/DTD/svg10.dtd">
<svg version="1.0" xmlns="http://www.w3.org/2000/svg"
 width="128.000000pt" height="128.000000pt" viewBox="0 0 128.000000 128.000000"
 preserveAspectRatio="xMidYMid meet">

<g transform="translate(0.000000,128.000000) scale(0.100000,-0.100000)"
fill="#fff" stroke="none">
<path d="M26 1069 c-31 -25 -34 -61 -6 -89 20 -20 33 -20 620 -20 587 0 600 0
620 20 28 28 25 64 -6 89 -26 21 -35 21 -614 21 -579 0 -588 0 -614 -21z"/>
<path d="M16 678 c-21 -29 -20 -51 2 -77 l17 -21 610 2 609 3 16 28 c13 24 13
30 0 55 l-16 27 -611 3 -612 2 -15 -22z"/>
<path d="M20 300 c-28 -28 -25 -64 6 -89 26 -21 35 -21 614 -21 579 0 588 0
614 21 31 25 34 61 6 89 -20 20 -33 20 -620 20 -587 0 -600 0 -620 -20z"/>
</g>
</svg>
