<?xml version="1.0" standalone="no"?>
<!DOCTYPE svg PUBLIC "-//W3C//DTD SVG 20010904//EN"
 "http://www.w3.org/TR/2001/REC-SVG-20010904/DTD/svg10.dtd">
<svg version="1.0" xmlns="http://www.w3.org/2000/svg"
 width="128.000000pt" height="128.000000pt" viewBox="0 0 128.000000 128.000000"
 preserveAspectRatio="xMidYMid meet">

<g transform="translate(0.000000,128.000000) scale(0.100000,-0.100000)"
fill="#fff" stroke="none">
<path d="M784 1231 c-44 -27 -61 -51 -206 -294 -85 -144 -137 -221 -151 -226
-17 -7 -30 -1 -61 25 -46 39 -81 48 -176 42 -74 -4 -105 -19 -144 -72 -20 -26
-21 -43 -24 -292 -3 -259 -2 -265 20 -305 36 -64 69 -79 179 -79 85 0 98 3
132 25 20 14 37 30 37 35 0 6 22 10 48 10 37 0 54 -5 68 -21 42 -47 58 -49
338 -49 l264 0 30 25 c38 32 42 51 88 386 36 261 36 266 19 304 -31 63 -62 75
-197 75 -106 0 -118 2 -118 18 0 9 13 67 30 127 16 61 30 130 30 155 0 50 -24
96 -62 116 -34 20 -108 17 -144 -5z m123 -77 c16 -26 15 -32 -27 -198 -24 -94
-41 -179 -37 -189 6 -15 23 -17 149 -17 163 0 188 -8 188 -62 0 -50 -70 -541
-80 -565 -10 -23 -10 -23 -258 -23 -240 0 -250 1 -268 21 -26 28 -61 45 -111
54 l-43 7 0 221 1 222 42 20 c39 18 52 38 178 249 74 126 150 242 167 257 41
37 76 37 99 3z m-590 -476 c23 -21 23 -23 23 -275 l0 -254 -25 -24 c-21 -22
-33 -25 -93 -25 -55 0 -75 4 -96 21 l-26 20 0 257 c0 249 1 256 22 279 19 20
31 23 97 23 63 0 78 -3 98 -22z"/>
</g>
</svg>
