<?xml version="1.0" standalone="no"?>
<!DOCTYPE svg PUBLIC "-//W3C//DTD SVG 20010904//EN"
 "http://www.w3.org/TR/2001/REC-SVG-20010904/DTD/svg10.dtd">
<svg version="1.0" xmlns="http://www.w3.org/2000/svg"
 width="128.000000pt" height="128.000000pt" viewBox="0 0 128.000000 128.000000"
 preserveAspectRatio="xMidYMid meet">

<g transform="translate(0.000000,128.000000) scale(0.100000,-0.100000)"
fill="#fff" stroke="none">
<path d="M514 1260 c-25 -13 -49 -35 -62 -59 -21 -37 -22 -49 -22 -343 0 -300
0 -306 23 -338 44 -66 67 -75 187 -75 120 0 143 9 188 75 22 32 22 38 22 338
0 294 -1 306 -22 343 -32 57 -84 79 -189 79 -64 0 -94 -5 -125 -20z"/>
<path d="M156 707 c-17 -26 -8 -120 19 -197 53 -150 192 -272 355 -313 l55
-14 3 -92 3 -91 49 0 49 0 3 91 3 92 55 14 c88 22 174 69 233 129 88 87 129
170 147 294 7 52 6 69 -6 87 -30 47 -94 19 -94 -40 0 -49 -25 -132 -55 -183
-39 -67 -101 -123 -175 -158 -59 -28 -74 -31 -160 -31 -85 1 -102 4 -160 32
-133 63 -229 205 -230 340 0 59 -64 87 -94 40z"/>
</g>
</svg>
