<?xml version="1.0" standalone="no"?>
<!DOCTYPE svg PUBLIC "-//W3C//DTD SVG 20010904//EN"
 "http://www.w3.org/TR/2001/REC-SVG-20010904/DTD/svg10.dtd">
<svg version="1.0" xmlns="http://www.w3.org/2000/svg"
 width="128.000000pt" height="128.000000pt" viewBox="0 0 128.000000 128.000000"
 preserveAspectRatio="xMidYMid meet">

<g transform="translate(0.000000,128.000000) scale(0.100000,-0.100000)"
fill="#fff" stroke="none">
<path d="M594 1271 c-39 -17 -64 -60 -64 -110 0 -46 -1 -46 -48 -65 -29 -12
-72 -45 -113 -85 -94 -94 -109 -138 -119 -351 -10 -208 -36 -289 -129 -408
-75 -95 -64 -102 160 -102 l177 0 6 -24 c15 -62 104 -126 176 -126 72 0 161
64 176 126 l6 24 177 0 c224 0 235 7 160 102 -93 119 -119 200 -129 408 -10
213 -25 257 -119 351 -41 40 -84 73 -113 85 -48 19 -48 19 -48 66 0 38 -6 54
-27 78 -30 34 -89 48 -129 31z m74 -83 c7 -7 12 -22 12 -35 0 -20 -5 -23 -40
-23 -35 0 -40 3 -40 23 0 27 17 47 40 47 9 0 21 -5 28 -12z m110 -169 c122
-61 172 -154 172 -322 0 -175 30 -303 95 -412 19 -32 35 -59 35 -61 0 -2 -198
-4 -440 -4 -242 0 -440 2 -440 4 0 2 16 29 35 61 65 109 95 237 95 412 0 168
50 261 172 322 52 27 72 31 138 31 66 0 86 -4 138 -31z m-38 -879 c0 -6 -12
-22 -26 -35 -21 -19 -38 -25 -74 -25 -36 0 -53 6 -74 25 -14 13 -26 29 -26 35
0 6 37 10 100 10 63 0 100 -4 100 -10z"/>
<path d="M210 1103 c-77 -88 -136 -248 -128 -348 3 -37 5 -40 33 -40 29 0 29
0 42 85 15 96 51 179 111 259 33 43 39 57 31 72 -16 31 -45 22 -89 -28z"/>
<path d="M981 1131 c-9 -15 -2 -31 38 -84 62 -85 88 -147 104 -249 13 -82 13
-83 42 -83 28 0 30 3 33 40 8 100 -51 260 -128 348 -44 50 -73 59 -89 28z"/>
</g>
</svg>
