<?xml version="1.0" standalone="no"?>
<!DOCTYPE svg PUBLIC "-//W3C//DTD SVG 20010904//EN"
 "http://www.w3.org/TR/2001/REC-SVG-20010904/DTD/svg10.dtd">
<svg version="1.0" xmlns="http://www.w3.org/2000/svg"
 width="1024.000000pt" height="228.000000pt" viewBox="0 0 1024.000000 228.000000"
 preserveAspectRatio="xMidYMid meet">

<g transform="translate(0.000000,228.000000) scale(0.100000,-0.100000)"
fill="#ff0000" stroke="none">
<path d="M1067 2269 c-288 -9 -528 -26 -637 -45 -193 -33 -319 -143 -364 -319
-63 -244 -82 -833 -41 -1260 26 -271 56 -369 141 -464 130 -145 304 -169 1291
-178 794 -7 1300 16 1464 67 128 39 230 140 269 266 51 167 74 481 67 909 -10
563 -50 753 -181 872 -66 60 -135 90 -249 108 -285 45 -1111 66 -1760 44z
m656 -880 c221 -128 408 -237 415 -244 11 -9 -71 -61 -406 -253 -230 -133
-421 -242 -425 -242 -4 0 -7 218 -7 485 0 331 3 485 10 485 6 0 192 -104 413
-231z"/>
<path fill="#fff" d="M8340 1175 l0 -1015 134 0 134 0 12 53 c6 28 13 58 16 66 3 8 21 -5
52 -37 57 -61 123 -93 209 -100 170 -13 272 85 320 308 15 73 18 135 18 445 0
307 -3 372 -18 442 -44 205 -119 279 -282 277 -52 0 -83 -7 -119 -24 -50 -24
-118 -83 -148 -130 -16 -23 -17 -2 -17 353 l-1 377 -155 0 -155 0 0 -1015z
m495 205 c67 -25 90 -184 82 -575 -5 -296 -16 -360 -67 -408 -35 -31 -93 -37
-140 -12 -62 32 -60 20 -60 470 0 407 1 410 23 450 25 45 79 85 113 85 12 0
34 -4 49 -10z"/>
<path fill="#fff" d="M3594 2103 c3 -10 86 -312 186 -671 l180 -652 0 -310 0 -310 155 0
155 0 0 314 0 315 180 639 c98 352 182 651 186 666 l6 27 -158 -3 -159 -3 -57
-255 c-52 -232 -126 -586 -143 -685 -9 -51 -18 -33 -34 65 -7 41 -50 253 -97
471 -46 218 -84 399 -84 403 0 3 -72 6 -161 6 -148 0 -160 -1 -155 -17z"/>
<path fill="#fff" d="M6420 1990 l0 -129 158 -3 157 -3 3 -847 2 -848 155 0 155 0 0 850 0
850 160 0 160 0 0 130 0 130 -475 0 -475 0 0 -130z"/>
<path  fill="#fff" d="M4917 1610 c-170 -29 -276 -130 -321 -305 -48 -191 -49 -683 -1 -870
57 -219 185 -303 446 -293 98 4 123 8 176 33 109 49 175 141 211 297 14 60 17
129 17 398 0 351 -7 417 -60 537 -71 160 -252 239 -468 203z m160 -245 c42
-48 46 -84 50 -442 6 -455 -6 -530 -89 -561 -66 -25 -120 20 -138 117 -13 70
-13 722 0 792 16 87 65 135 125 124 17 -3 40 -16 52 -30z"/>
<path fill="#fff" d="M9733 1609 c-128 -16 -214 -74 -267 -179 -64 -129 -71 -182 -71 -565
0 -325 1 -343 23 -420 63 -218 155 -293 372 -302 274 -13 420 106 437 353 l6
82 -64 6 c-35 3 -98 8 -140 10 l-76 6 -7 -71 c-11 -125 -44 -169 -124 -169
-94 0 -113 41 -120 258 l-4 152 272 0 273 0 -6 233 c-6 248 -19 341 -61 432
-46 99 -131 156 -261 175 -79 11 -94 11 -182 -1z m138 -219 c10 -6 26 -24 34
-40 17 -34 34 -184 35 -307 l0 -83 -121 0 -122 0 5 168 c5 179 16 225 59 256
26 18 81 21 110 6z"/>
<path fill="#fff" d="M5620 1023 c1 -619 5 -684 54 -768 49 -82 115 -115 230 -115 118 1
200 43 265 137 20 29 39 52 42 53 3 0 11 -38 18 -85 l13 -85 124 0 124 0 0
715 0 715 -160 0 -160 0 0 -573 c0 -638 4 -599 -70 -637 -22 -11 -50 -20 -64
-20 -39 0 -77 39 -87 90 -4 25 -8 291 -9 593 l0 547 -160 0 -160 0 0 -567z"/>
<path fill="#fff" d="M7273 993 c3 -511 6 -606 20 -652 41 -139 119 -201 251 -201 89 0
132 12 192 53 44 29 105 97 117 129 8 25 17 1 29 -80 l12 -82 128 0 128 0 0
715 0 715 -160 0 -160 0 0 -572 0 -571 -40 -38 c-68 -65 -141 -63 -177 3 -17
30 -18 77 -21 606 l-4 572 -160 0 -160 0 5 -597z"/>
</g>
</svg>
